<mxfile host="app.diagrams.net" agent="Mozilla/5.0 (Windows NT 10.0; Win64; x64) AppleWebKit/537.36 (KHTML, like Gecko) Chrome/137.0.0.0 Safari/537.36" version="27.1.4">
  <diagram name="Pagina-1" id="Qdu3raOI9FRifDKOlTYN">
    <mxGraphModel dx="2461" dy="-416" grid="1" gridSize="10" guides="1" tooltips="1" connect="1" arrows="1" fold="1" page="1" pageScale="1" pageWidth="827" pageHeight="1169" math="0" shadow="0">
      <root>
        <mxCell id="0" />
        <mxCell id="1" parent="0" />
        <mxCell id="QdLWRezI_ocXIoISg_wT-1" value="&lt;font style=&quot;font-size: 25px;&quot;&gt;Utente&lt;/font&gt;" style="swimlane;childLayout=stackLayout;horizontal=1;startSize=50;horizontalStack=0;rounded=1;fontSize=14;fontStyle=1;strokeWidth=2;resizeParent=0;resizeLast=1;shadow=0;dashed=0;align=center;arcSize=4;whiteSpace=wrap;html=1;fillColor=#d5e8d4;gradientColor=#97d077;strokeColor=#82b366;fontColor=light-dark(#000000,#FFFFFF);" parent="1" vertex="1">
          <mxGeometry x="333.5" y="1343.86" width="286.5" height="276.14" as="geometry" />
        </mxCell>
        <mxCell id="QdLWRezI_ocXIoISg_wT-2" value="&lt;span&gt;&lt;font style=&quot;font-size: 16px;&quot;&gt;&lt;u style=&quot;&quot;&gt;IDUtente&amp;nbsp;&lt;/u&gt;&lt;/font&gt;&lt;/span&gt;&lt;div&gt;&lt;font style=&quot;font-size: 16px;&quot;&gt;Username&lt;/font&gt;&lt;/div&gt;&lt;div&gt;&lt;font style=&quot;font-size: 16px;&quot;&gt;Nome&lt;/font&gt;&lt;/div&gt;&lt;div&gt;&lt;font style=&quot;font-size: 16px;&quot;&gt;Cognome&lt;/font&gt;&lt;/div&gt;&lt;div&gt;&lt;font style=&quot;font-size: 16px;&quot;&gt;Email&lt;/font&gt;&lt;/div&gt;&lt;div&gt;&lt;font style=&quot;font-size: 16px;&quot;&gt;Password&lt;/font&gt;&lt;/div&gt;&lt;div&gt;&lt;font style=&quot;font-size: 16px;&quot;&gt;Indirizzo&lt;/font&gt;&lt;/div&gt;&lt;div&gt;&lt;font style=&quot;font-size: 16px;&quot;&gt;Tipologia {Admin,Cliente,Artigiano}&lt;/font&gt;&lt;/div&gt;&lt;div&gt;&lt;font style=&quot;font-size: 16px;&quot;&gt;P.IVA (0,1)&lt;br&gt;AdminTimeStampCreazione (0,1)&lt;/font&gt;&lt;/div&gt;&lt;div&gt;&lt;font style=&quot;font-size: 16px;&quot;&gt;ArtigianoDescrizione(0,1)&lt;/font&gt;&lt;/div&gt;" style="align=left;strokeColor=none;fillColor=none;spacingLeft=4;spacingRight=4;fontSize=12;verticalAlign=top;resizable=0;rotatable=0;part=1;html=1;whiteSpace=wrap;fontStyle=1;fontColor=light-dark(#000000,#FFFFFF);" parent="QdLWRezI_ocXIoISg_wT-1" vertex="1">
          <mxGeometry y="50" width="286.5" height="226.14" as="geometry" />
        </mxCell>
        <mxCell id="QdLWRezI_ocXIoISg_wT-3" value="&lt;i style=&quot;&quot;&gt;&lt;font style=&quot;font-size: 16px;&quot;&gt;StoricoApprovazioni&lt;/font&gt;&lt;/i&gt;&lt;br&gt;&lt;div&gt;&lt;i&gt;&lt;br&gt;&lt;/i&gt;&lt;/div&gt;&lt;div&gt;&lt;font&gt;Esito&lt;/font&gt;&lt;/div&gt;&lt;div&gt;&lt;font&gt;DataEsito&lt;/font&gt;&lt;/div&gt;" style="shape=rhombus;perimeter=rhombusPerimeter;whiteSpace=wrap;html=1;align=center;fillColor=#ffcd28;gradientColor=#ffa500;strokeColor=#d79b00;aspect=fixed;fontColor=light-dark(#000000,#FFFFFF);fontStyle=1" parent="1" vertex="1">
          <mxGeometry x="775" y="1300" width="248.38" height="170.92" as="geometry" />
        </mxCell>
        <mxCell id="QdLWRezI_ocXIoISg_wT-4" value="" style="endArrow=none;html=1;rounded=0;exitX=0;exitY=0.5;exitDx=0;exitDy=0;fontColor=light-dark(#000000,#FFFFFF);fontStyle=1;entryX=1;entryY=0;entryDx=0;entryDy=0;" parent="1" source="QdLWRezI_ocXIoISg_wT-3" target="QdLWRezI_ocXIoISg_wT-2" edge="1">
          <mxGeometry width="50" height="50" relative="1" as="geometry">
            <mxPoint x="757.5" y="1526.49" as="sourcePoint" />
            <mxPoint x="628" y="1509" as="targetPoint" />
          </mxGeometry>
        </mxCell>
        <mxCell id="QdLWRezI_ocXIoISg_wT-5" value="" style="endArrow=none;html=1;rounded=0;fontColor=light-dark(#000000,#FFFFFF);fontStyle=1;entryX=0.989;entryY=0.324;entryDx=0;entryDy=0;exitX=0.5;exitY=1;exitDx=0;exitDy=0;entryPerimeter=0;" parent="1" source="QdLWRezI_ocXIoISg_wT-3" target="QdLWRezI_ocXIoISg_wT-2" edge="1">
          <mxGeometry width="50" height="50" relative="1" as="geometry">
            <mxPoint x="838" y="1588" as="sourcePoint" />
            <mxPoint x="725" y="1587.98" as="targetPoint" />
          </mxGeometry>
        </mxCell>
        <mxCell id="QdLWRezI_ocXIoISg_wT-6" value="&lt;b style=&quot;font-size: 16px;&quot;&gt;(Admin)&lt;/b&gt;" style="text;html=1;align=center;verticalAlign=middle;resizable=0;points=[];autosize=1;strokeColor=none;fillColor=none;" parent="1" vertex="1">
          <mxGeometry x="698" y="1359" width="80" height="30" as="geometry" />
        </mxCell>
        <mxCell id="QdLWRezI_ocXIoISg_wT-7" value="(Artigiano)" style="text;html=1;align=center;verticalAlign=middle;resizable=0;points=[];autosize=1;strokeColor=none;fillColor=none;fontStyle=1;fontSize=17;" parent="1" vertex="1">
          <mxGeometry x="673" y="1429" width="100" height="30" as="geometry" />
        </mxCell>
        <mxCell id="QdLWRezI_ocXIoISg_wT-8" value="(0,1)" style="text;html=1;align=center;verticalAlign=middle;resizable=0;points=[];autosize=1;strokeColor=none;fillColor=none;fontSize=15;fontStyle=1;fontColor=light-dark(#000000,#FFFFFF);" parent="1" vertex="1">
          <mxGeometry x="626.5" y="1429" width="50" height="30" as="geometry" />
        </mxCell>
        <mxCell id="QdLWRezI_ocXIoISg_wT-9" value="(0,n)" style="text;html=1;align=center;verticalAlign=middle;resizable=0;points=[];autosize=1;strokeColor=none;fillColor=none;fontSize=15;fontStyle=1;fontColor=light-dark(#000000,#FFFFFF);" parent="1" vertex="1">
          <mxGeometry x="620" y="1359" width="50" height="30" as="geometry" />
        </mxCell>
        <mxCell id="QdLWRezI_ocXIoISg_wT-10" value="&lt;i&gt;&lt;font style=&quot;font-size: 24px;&quot;&gt;Segnala&lt;/font&gt;&lt;/i&gt;" style="shape=rhombus;perimeter=rhombusPerimeter;whiteSpace=wrap;html=1;align=center;fillColor=#ffcd28;gradientColor=#ffa500;strokeColor=#d79b00;fontColor=light-dark(#000000,#FFFFFF);fontStyle=1" parent="1" vertex="1">
          <mxGeometry x="-13.5" y="1440" width="130" height="110" as="geometry" />
        </mxCell>
        <mxCell id="QdLWRezI_ocXIoISg_wT-11" value="" style="endArrow=none;html=1;rounded=0;fontColor=light-dark(#000000,#FFFFFF);fontStyle=1;entryX=1;entryY=0.5;entryDx=0;entryDy=0;exitX=0;exitY=0.5;exitDx=0;exitDy=0;" parent="1" source="QdLWRezI_ocXIoISg_wT-2" target="QdLWRezI_ocXIoISg_wT-10" edge="1">
          <mxGeometry width="50" height="50" relative="1" as="geometry">
            <mxPoint x="286" y="1552" as="sourcePoint" />
            <mxPoint x="40" y="1536" as="targetPoint" />
          </mxGeometry>
        </mxCell>
        <mxCell id="QdLWRezI_ocXIoISg_wT-12" value="&lt;font style=&quot;font-size: 25px;&quot;&gt;Problema&lt;/font&gt;" style="swimlane;childLayout=stackLayout;horizontal=1;startSize=50;horizontalStack=0;rounded=1;fontSize=14;fontStyle=1;strokeWidth=2;resizeParent=0;resizeLast=1;shadow=0;dashed=0;align=center;arcSize=4;whiteSpace=wrap;html=1;fillColor=#d5e8d4;gradientColor=#97d077;strokeColor=#82b366;fontColor=light-dark(#000000,#FFFFFF);" parent="1" vertex="1">
          <mxGeometry x="-64" y="1876.5" width="190" height="152" as="geometry" />
        </mxCell>
        <mxCell id="QdLWRezI_ocXIoISg_wT-13" value="&lt;div&gt;&lt;font style=&quot;font-size: 17px;&quot;&gt;&lt;u&gt;IDProblema&lt;/u&gt;&lt;/font&gt;&lt;/div&gt;&lt;div&gt;&lt;span style=&quot;background-color: transparent;&quot;&gt;&lt;font style=&quot;font-size: 15px;&quot;&gt;Descrizione&lt;/font&gt;&lt;/span&gt;&lt;/div&gt;&lt;div&gt;&lt;span style=&quot;font-size: 15px;&quot;&gt;Status&lt;/span&gt;&lt;span style=&quot;background-color: transparent;&quot;&gt;&lt;font style=&quot;font-size: 15px;&quot;&gt;&lt;/font&gt;&lt;/span&gt;&lt;/div&gt;&lt;div&gt;&lt;span style=&quot;background-color: transparent;&quot;&gt;&lt;font style=&quot;font-size: 15px;&quot;&gt;Immagine(0,1)&lt;/font&gt;&lt;/span&gt;&lt;/div&gt;&lt;div&gt;&lt;span style=&quot;background-color: transparent;&quot;&gt;&lt;font style=&quot;font-size: 15px;&quot;&gt;TimeStampSegnalazione&lt;/font&gt;&lt;/span&gt;&lt;/div&gt;" style="align=left;strokeColor=none;fillColor=none;spacingLeft=4;spacingRight=4;fontSize=12;verticalAlign=top;resizable=0;rotatable=0;part=1;html=1;whiteSpace=wrap;fontStyle=1;fontColor=light-dark(#000000,#FFFFFF);" parent="QdLWRezI_ocXIoISg_wT-12" vertex="1">
          <mxGeometry y="50" width="190" height="102" as="geometry" />
        </mxCell>
        <mxCell id="QdLWRezI_ocXIoISg_wT-14" value="" style="endArrow=none;html=1;rounded=0;fontColor=light-dark(#000000,#FFFFFF);fontStyle=1;entryX=0.5;entryY=0;entryDx=0;entryDy=0;exitX=0.5;exitY=1;exitDx=0;exitDy=0;" parent="1" source="QdLWRezI_ocXIoISg_wT-10" target="QdLWRezI_ocXIoISg_wT-12" edge="1">
          <mxGeometry width="50" height="50" relative="1" as="geometry">
            <mxPoint x="463" y="1829" as="sourcePoint" />
            <mxPoint x="37" y="1859" as="targetPoint" />
          </mxGeometry>
        </mxCell>
        <mxCell id="QdLWRezI_ocXIoISg_wT-15" value="&lt;b style=&quot;font-size: 16px;&quot;&gt;(Cliente OR Artigiano)&lt;/b&gt;" style="text;html=1;align=center;verticalAlign=middle;resizable=0;points=[];autosize=1;strokeColor=none;fillColor=none;" parent="1" vertex="1">
          <mxGeometry x="108" y="1470.92" width="190" height="30" as="geometry" />
        </mxCell>
        <mxCell id="QdLWRezI_ocXIoISg_wT-16" value="(0,n)" style="text;html=1;align=center;verticalAlign=middle;resizable=0;points=[];autosize=1;strokeColor=none;fillColor=none;fontSize=15;fontStyle=1;fontColor=light-dark(#000000,#FFFFFF);" parent="1" vertex="1">
          <mxGeometry x="283.5" y="1470.92" width="50" height="30" as="geometry" />
        </mxCell>
        <mxCell id="QdLWRezI_ocXIoISg_wT-17" value="(0,1)" style="text;html=1;align=center;verticalAlign=middle;resizable=0;points=[];autosize=1;strokeColor=none;fillColor=none;fontSize=15;fontStyle=1;fontColor=light-dark(#000000,#FFFFFF);" parent="1" vertex="1">
          <mxGeometry x="26.5" y="1849" width="50" height="30" as="geometry" />
        </mxCell>
        <mxCell id="QdLWRezI_ocXIoISg_wT-18" value="" style="endArrow=none;html=1;rounded=0;fontColor=light-dark(#000000,#FFFFFF);fontStyle=1;exitX=0;exitY=0;exitDx=0;exitDy=0;entryX=1;entryY=0.5;entryDx=0;entryDy=0;" parent="1" source="QdLWRezI_ocXIoISg_wT-2" target="QdLWRezI_ocXIoISg_wT-19" edge="1">
          <mxGeometry width="50" height="50" relative="1" as="geometry">
            <mxPoint x="325.5" y="1409" as="sourcePoint" />
            <mxPoint x="-342" y="1399" as="targetPoint" />
          </mxGeometry>
        </mxCell>
        <mxCell id="QdLWRezI_ocXIoISg_wT-19" value="&lt;i&gt;&lt;font style=&quot;font-size: 25px;&quot;&gt;Risolve&lt;/font&gt;&lt;/i&gt;" style="shape=rhombus;perimeter=rhombusPerimeter;whiteSpace=wrap;html=1;align=center;fillColor=#ffcd28;gradientColor=#ffa500;strokeColor=#d79b00;aspect=fixed;fontColor=light-dark(#000000,#FFFFFF);fontStyle=1" parent="1" vertex="1">
          <mxGeometry x="-114" y="1343.8600000000001" width="130" height="115.14" as="geometry" />
        </mxCell>
        <mxCell id="QdLWRezI_ocXIoISg_wT-20" value="" style="endArrow=none;html=1;rounded=0;fontColor=light-dark(#000000,#FFFFFF);fontStyle=1;exitX=0.5;exitY=1;exitDx=0;exitDy=0;entryX=0;entryY=0;entryDx=0;entryDy=0;" parent="1" source="QdLWRezI_ocXIoISg_wT-19" target="QdLWRezI_ocXIoISg_wT-12" edge="1">
          <mxGeometry width="50" height="50" relative="1" as="geometry">
            <mxPoint x="68" y="1709" as="sourcePoint" />
            <mxPoint x="-578" y="1711" as="targetPoint" />
          </mxGeometry>
        </mxCell>
        <mxCell id="QdLWRezI_ocXIoISg_wT-21" value="(0,1)" style="text;html=1;align=center;verticalAlign=middle;resizable=0;points=[];autosize=1;strokeColor=none;fillColor=none;fontSize=15;fontStyle=1;fontColor=light-dark(#000000,#FFFFFF);" parent="1" vertex="1">
          <mxGeometry x="-63.5" y="1849" width="50" height="30" as="geometry" />
        </mxCell>
        <mxCell id="QdLWRezI_ocXIoISg_wT-22" value="&lt;b style=&quot;font-size: 16px;&quot;&gt;(Admin)&lt;/b&gt;" style="text;html=1;align=center;verticalAlign=middle;resizable=0;points=[];autosize=1;strokeColor=none;fillColor=none;" parent="1" vertex="1">
          <mxGeometry x="191.75" y="1359" width="80" height="30" as="geometry" />
        </mxCell>
        <mxCell id="QdLWRezI_ocXIoISg_wT-23" value="(0,n)" style="text;html=1;align=center;verticalAlign=middle;resizable=0;points=[];autosize=1;strokeColor=none;fillColor=none;fontSize=15;fontStyle=1;fontColor=light-dark(#000000,#FFFFFF);" parent="1" vertex="1">
          <mxGeometry x="283.5" y="1359" width="50" height="30" as="geometry" />
        </mxCell>
        <mxCell id="QdLWRezI_ocXIoISg_wT-24" value="" style="endArrow=none;html=1;rounded=0;fontColor=light-dark(#000000,#FFFFFF);fontStyle=1;exitX=0;exitY=1;exitDx=0;exitDy=0;entryX=0.5;entryY=0;entryDx=0;entryDy=0;" parent="1" source="QdLWRezI_ocXIoISg_wT-2" target="QdLWRezI_ocXIoISg_wT-25" edge="1">
          <mxGeometry width="50" height="50" relative="1" as="geometry">
            <mxPoint x="513" y="1929" as="sourcePoint" />
            <mxPoint x="334" y="1779" as="targetPoint" />
          </mxGeometry>
        </mxCell>
        <mxCell id="QdLWRezI_ocXIoISg_wT-25" value="&lt;i&gt;&lt;font style=&quot;font-size: 25px;&quot;&gt;Effettua&lt;/font&gt;&lt;/i&gt;" style="shape=rhombus;perimeter=rhombusPerimeter;whiteSpace=wrap;html=1;align=center;fillColor=#ffcd28;gradientColor=#ffa500;strokeColor=#d79b00;aspect=fixed;fontColor=light-dark(#000000,#FFFFFF);fontStyle=1" parent="1" vertex="1">
          <mxGeometry x="279.25" y="1709" width="110" height="88" as="geometry" />
        </mxCell>
        <mxCell id="InCvgjIFBe_jEXLaenRz-7" style="edgeStyle=orthogonalEdgeStyle;rounded=0;orthogonalLoop=1;jettySize=auto;html=1;exitX=0;exitY=0;exitDx=0;exitDy=0;entryX=0.5;entryY=1;entryDx=0;entryDy=0;endArrow=none;startFill=0;" edge="1" parent="1" source="QdLWRezI_ocXIoISg_wT-26" target="InCvgjIFBe_jEXLaenRz-6">
          <mxGeometry relative="1" as="geometry" />
        </mxCell>
        <mxCell id="QdLWRezI_ocXIoISg_wT-26" value="&lt;font style=&quot;font-size: 25px;&quot;&gt;Ordine&lt;/font&gt;" style="swimlane;childLayout=stackLayout;horizontal=1;startSize=50;horizontalStack=0;rounded=1;fontSize=14;fontStyle=1;strokeWidth=2;resizeParent=0;resizeLast=1;shadow=0;dashed=0;align=center;arcSize=4;whiteSpace=wrap;html=1;fillColor=#d5e8d4;gradientColor=#97d077;strokeColor=#82b366;fontColor=light-dark(#000000,#FFFFFF);" parent="1" vertex="1">
          <mxGeometry x="249.75" y="2098" width="195.75" height="171" as="geometry" />
        </mxCell>
        <mxCell id="QdLWRezI_ocXIoISg_wT-27" value="&lt;span&gt;&lt;font style=&quot;font-size: 17px;&quot;&gt;&lt;u style=&quot;&quot;&gt;IDOrdine&lt;/u&gt;&lt;/font&gt;&lt;/span&gt;&lt;div&gt;&lt;font style=&quot;font-size: 15px;&quot;&gt;&lt;span&gt;Data&lt;br&gt;Ora&lt;/span&gt;&lt;/font&gt;&lt;/div&gt;&lt;div&gt;&lt;font style=&quot;font-size: 15px;&quot;&gt;&lt;span&gt;ImportoTotale&lt;/span&gt;&lt;/font&gt;&lt;/div&gt;&lt;div&gt;&lt;font style=&quot;font-size: 15px;&quot;&gt;&lt;span&gt;Status&lt;/span&gt;&lt;/font&gt;&lt;/div&gt;&lt;div&gt;&lt;font style=&quot;font-size: 15px;&quot;&gt;&lt;span&gt;StripeCheckOutSessionId&lt;/span&gt;&lt;/font&gt;&lt;/div&gt;" style="align=left;strokeColor=none;fillColor=none;spacingLeft=4;spacingRight=4;fontSize=12;verticalAlign=top;resizable=0;rotatable=0;part=1;html=1;whiteSpace=wrap;fontColor=light-dark(#000000,#FFFFFF);fontStyle=1" parent="QdLWRezI_ocXIoISg_wT-26" vertex="1">
          <mxGeometry y="50" width="195.75" height="121" as="geometry" />
        </mxCell>
        <mxCell id="QdLWRezI_ocXIoISg_wT-28" value="" style="endArrow=none;html=1;rounded=0;fontColor=light-dark(#000000,#FFFFFF);fontStyle=1;exitX=0.5;exitY=1;exitDx=0;exitDy=0;entryX=0.5;entryY=0;entryDx=0;entryDy=0;" parent="1" source="QdLWRezI_ocXIoISg_wT-25" target="QdLWRezI_ocXIoISg_wT-26" edge="1">
          <mxGeometry width="50" height="50" relative="1" as="geometry">
            <mxPoint x="499.97" y="1837" as="sourcePoint" />
            <mxPoint x="499.97" y="1917" as="targetPoint" />
          </mxGeometry>
        </mxCell>
        <mxCell id="QdLWRezI_ocXIoISg_wT-29" value="(0,n)" style="text;html=1;align=center;verticalAlign=middle;resizable=0;points=[];autosize=1;strokeColor=none;fillColor=none;fontSize=15;fontStyle=1;fontColor=light-dark(#000000,#FFFFFF);" parent="1" vertex="1">
          <mxGeometry x="330" y="1629" width="50" height="30" as="geometry" />
        </mxCell>
        <mxCell id="QdLWRezI_ocXIoISg_wT-30" value="(1,1)" style="text;html=1;align=center;verticalAlign=middle;resizable=0;points=[];autosize=1;strokeColor=none;fillColor=none;fontSize=15;fontStyle=1;fontColor=light-dark(#000000,#FFFFFF);" parent="1" vertex="1">
          <mxGeometry x="344.25" y="2068" width="50" height="30" as="geometry" />
        </mxCell>
        <mxCell id="QdLWRezI_ocXIoISg_wT-33" value="(1,1)" style="text;html=1;align=center;verticalAlign=middle;resizable=0;points=[];autosize=1;strokeColor=none;fillColor=none;fontSize=15;fontStyle=1;fontColor=light-dark(#000000,#FFFFFF);" parent="1" vertex="1">
          <mxGeometry x="548" y="1629" width="50" height="30" as="geometry" />
        </mxCell>
        <mxCell id="QdLWRezI_ocXIoISg_wT-38" value="&lt;i&gt;&lt;font style=&quot;font-size: 25px;&quot;&gt;Scrive&lt;/font&gt;&lt;/i&gt;" style="shape=rhombus;perimeter=rhombusPerimeter;whiteSpace=wrap;html=1;align=center;fillColor=#ffcd28;gradientColor=#ffa500;strokeColor=#d79b00;aspect=fixed;fontColor=light-dark(#000000,#FFFFFF);fontStyle=1" parent="1" vertex="1">
          <mxGeometry x="403" y="1715" width="100" height="80" as="geometry" />
        </mxCell>
        <mxCell id="QdLWRezI_ocXIoISg_wT-39" value="" style="endArrow=none;html=1;rounded=0;fontColor=light-dark(#000000,#FFFFFF);fontStyle=1;exitX=0.41;exitY=1;exitDx=0;exitDy=0;entryX=0.5;entryY=0;entryDx=0;entryDy=0;exitPerimeter=0;" parent="1" source="QdLWRezI_ocXIoISg_wT-2" target="QdLWRezI_ocXIoISg_wT-38" edge="1">
          <mxGeometry width="50" height="50" relative="1" as="geometry">
            <mxPoint x="438" y="1629" as="sourcePoint" />
            <mxPoint x="438" y="1709" as="targetPoint" />
          </mxGeometry>
        </mxCell>
        <mxCell id="QdLWRezI_ocXIoISg_wT-40" value="&lt;font style=&quot;font-size: 25px;&quot;&gt;Recensione&lt;/font&gt;" style="swimlane;childLayout=stackLayout;horizontal=1;startSize=50;horizontalStack=0;rounded=1;fontSize=14;fontStyle=1;strokeWidth=2;resizeParent=0;resizeLast=1;shadow=0;dashed=0;align=center;arcSize=4;whiteSpace=wrap;html=1;fillColor=#d5e8d4;gradientColor=#97d077;strokeColor=#82b366;fontColor=light-dark(#000000,#FFFFFF);" parent="1" vertex="1">
          <mxGeometry x="438" y="1859.5" width="140" height="169" as="geometry" />
        </mxCell>
        <mxCell id="QdLWRezI_ocXIoISg_wT-41" value="&lt;span&gt;&lt;font style=&quot;font-size: 17px;&quot;&gt;&lt;u style=&quot;&quot;&gt;IDRecensione&lt;/u&gt;&lt;/font&gt;&lt;/span&gt;&lt;div&gt;&lt;font style=&quot;font-size: 15px;&quot;&gt;Testo&lt;/font&gt;&lt;/div&gt;&lt;div&gt;&lt;font style=&quot;font-size: 15px;&quot;&gt;Valutazione&lt;br&gt;Immagine (0,1)&lt;/font&gt;&lt;/div&gt;&lt;div&gt;&lt;font style=&quot;font-size: 15px;&quot;&gt;Data&lt;/font&gt;&lt;/div&gt;&lt;div&gt;&lt;font style=&quot;font-size: 15px;&quot;&gt;Ora&lt;/font&gt;&lt;/div&gt;" style="align=left;strokeColor=none;fillColor=none;spacingLeft=4;spacingRight=4;fontSize=12;verticalAlign=top;resizable=0;rotatable=0;part=1;html=1;whiteSpace=wrap;fontStyle=1;fontColor=light-dark(#000000,#FFFFFF);" parent="QdLWRezI_ocXIoISg_wT-40" vertex="1">
          <mxGeometry y="50" width="140" height="119" as="geometry" />
        </mxCell>
        <mxCell id="QdLWRezI_ocXIoISg_wT-42" value="" style="endArrow=none;html=1;rounded=0;fontColor=light-dark(#000000,#FFFFFF);fontStyle=1;exitX=0.5;exitY=1;exitDx=0;exitDy=0;entryX=0.25;entryY=0;entryDx=0;entryDy=0;" parent="1" source="QdLWRezI_ocXIoISg_wT-38" target="QdLWRezI_ocXIoISg_wT-40" edge="1">
          <mxGeometry width="50" height="50" relative="1" as="geometry">
            <mxPoint x="525" y="1829" as="sourcePoint" />
            <mxPoint x="558" y="1909" as="targetPoint" />
          </mxGeometry>
        </mxCell>
        <mxCell id="QdLWRezI_ocXIoISg_wT-43" value="&lt;b style=&quot;font-size: 16px;&quot;&gt;(Cliente)&lt;/b&gt;" style="text;html=1;align=center;verticalAlign=middle;resizable=0;points=[];autosize=1;strokeColor=none;fillColor=none;rotation=-90;" parent="1" vertex="1">
          <mxGeometry x="271.75" y="1649" width="90" height="30" as="geometry" />
        </mxCell>
        <mxCell id="QdLWRezI_ocXIoISg_wT-44" value="&lt;b style=&quot;font-size: 16px;&quot;&gt;(Cliente)&lt;/b&gt;" style="text;html=1;align=center;verticalAlign=middle;resizable=0;points=[];autosize=1;strokeColor=none;fillColor=none;rotation=-90;" parent="1" vertex="1">
          <mxGeometry x="389.25" y="1649" width="90" height="30" as="geometry" />
        </mxCell>
        <mxCell id="QdLWRezI_ocXIoISg_wT-45" value="(0,n)" style="text;html=1;align=center;verticalAlign=middle;resizable=0;points=[];autosize=1;strokeColor=none;fillColor=none;fontSize=15;fontStyle=1;fontColor=light-dark(#000000,#FFFFFF);" parent="1" vertex="1">
          <mxGeometry x="445.5" y="1629" width="50" height="30" as="geometry" />
        </mxCell>
        <mxCell id="QdLWRezI_ocXIoISg_wT-46" value="(1,1)" style="text;html=1;align=center;verticalAlign=middle;resizable=0;points=[];autosize=1;strokeColor=none;fillColor=none;fontSize=15;fontStyle=1;fontColor=light-dark(#000000,#FFFFFF);" parent="1" vertex="1">
          <mxGeometry x="470.5" y="1829.5" width="50" height="30" as="geometry" />
        </mxCell>
        <mxCell id="QdLWRezI_ocXIoISg_wT-47" value="&lt;b style=&quot;font-size: 16px;&quot;&gt;(Cliente)&lt;/b&gt;" style="text;html=1;align=center;verticalAlign=middle;resizable=0;points=[];autosize=1;strokeColor=none;fillColor=none;rotation=-90;" parent="1" vertex="1">
          <mxGeometry x="488" y="1649" width="90" height="30" as="geometry" />
        </mxCell>
        <mxCell id="QdLWRezI_ocXIoISg_wT-48" value="&lt;font style=&quot;font-size: 24px;&quot;&gt;Prodotto&lt;/font&gt;" style="swimlane;childLayout=stackLayout;horizontal=1;startSize=50;horizontalStack=0;rounded=1;fontSize=14;fontStyle=1;strokeWidth=2;resizeParent=0;resizeLast=1;shadow=0;dashed=0;align=center;arcSize=4;whiteSpace=wrap;html=1;fillColor=#d5e8d4;gradientColor=#97d077;strokeColor=#82b366;fontColor=light-dark(#000000,#FFFFFF);" parent="1" vertex="1">
          <mxGeometry x="808" y="2079" width="159" height="190" as="geometry" />
        </mxCell>
        <mxCell id="QdLWRezI_ocXIoISg_wT-49" value="&lt;span&gt;&lt;font style=&quot;font-size: 16px;&quot;&gt;&lt;u style=&quot;&quot;&gt;IDProdotto&lt;/u&gt;&lt;/font&gt;&lt;/span&gt;&lt;div&gt;&lt;font style=&quot;font-size: 15px;&quot;&gt;PrezzoUnitario&lt;/font&gt;&lt;/div&gt;&lt;div&gt;&lt;font style=&quot;font-size: 15px;&quot;&gt;Nome&lt;/font&gt;&lt;/div&gt;&lt;div&gt;&lt;font style=&quot;font-size: 15px;&quot;&gt;Descrizione&lt;/font&gt;&lt;/div&gt;&lt;div&gt;&lt;font style=&quot;font-size: 15px;&quot;&gt;Categoria&lt;/font&gt;&lt;/div&gt;&lt;div&gt;&lt;font style=&quot;font-size: 15px;&quot;&gt;QuantitaDisponibile&lt;/font&gt;&lt;/div&gt;&lt;div&gt;&lt;font style=&quot;font-size: 15px;&quot;&gt;Immagine (0,1)&lt;/font&gt;&lt;/div&gt;" style="align=left;strokeColor=none;fillColor=none;spacingLeft=4;spacingRight=4;fontSize=12;verticalAlign=top;resizable=0;rotatable=0;part=1;html=1;whiteSpace=wrap;fontStyle=1;fontColor=light-dark(#000000,#FFFFFF);" parent="QdLWRezI_ocXIoISg_wT-48" vertex="1">
          <mxGeometry y="50" width="159" height="140" as="geometry" />
        </mxCell>
        <mxCell id="QdLWRezI_ocXIoISg_wT-50" value="&lt;i&gt;&lt;font style=&quot;font-size: 25px;&quot;&gt;DettagliOrdine&lt;/font&gt;&lt;/i&gt;&lt;div&gt;&lt;br&gt;&lt;/div&gt;&lt;div&gt;&lt;font style=&quot;font-size: 14px;&quot;&gt;Quantita&lt;/font&gt;&lt;/div&gt;&lt;div&gt;&lt;font style=&quot;font-size: 14px;&quot;&gt;PrezzoStorico&lt;/font&gt;&lt;/div&gt;" style="shape=rhombus;perimeter=rhombusPerimeter;whiteSpace=wrap;html=1;align=center;fillColor=#ffcd28;gradientColor=#ffa500;strokeColor=#d79b00;aspect=fixed;fontColor=light-dark(#000000,#FFFFFF);fontStyle=1" parent="1" vertex="1">
          <mxGeometry x="535.5" y="2100" width="232" height="215.44" as="geometry" />
        </mxCell>
        <mxCell id="QdLWRezI_ocXIoISg_wT-51" value="" style="endArrow=none;html=1;rounded=0;fontColor=light-dark(#000000,#FFFFFF);fontStyle=1;exitX=1;exitY=0.5;exitDx=0;exitDy=0;entryX=0;entryY=0.5;entryDx=0;entryDy=0;" parent="1" source="QdLWRezI_ocXIoISg_wT-27" target="QdLWRezI_ocXIoISg_wT-50" edge="1">
          <mxGeometry width="50" height="50" relative="1" as="geometry">
            <mxPoint x="500" y="2199" as="sourcePoint" />
            <mxPoint x="500" y="2511" as="targetPoint" />
          </mxGeometry>
        </mxCell>
        <mxCell id="QdLWRezI_ocXIoISg_wT-52" value="" style="endArrow=none;html=1;rounded=0;fontColor=light-dark(#000000,#FFFFFF);fontStyle=1;exitX=1;exitY=0.5;exitDx=0;exitDy=0;entryX=0;entryY=0.5;entryDx=0;entryDy=0;" parent="1" source="QdLWRezI_ocXIoISg_wT-50" target="QdLWRezI_ocXIoISg_wT-49" edge="1">
          <mxGeometry width="50" height="50" relative="1" as="geometry">
            <mxPoint x="748" y="2361" as="sourcePoint" />
            <mxPoint x="840" y="2359" as="targetPoint" />
          </mxGeometry>
        </mxCell>
        <mxCell id="QdLWRezI_ocXIoISg_wT-53" value="(1,n)" style="text;html=1;align=center;verticalAlign=middle;resizable=0;points=[];autosize=1;strokeColor=none;fillColor=none;fontSize=15;fontStyle=1;fontColor=light-dark(#000000,#FFFFFF);" parent="1" vertex="1">
          <mxGeometry x="445.5" y="2179.5" width="50" height="30" as="geometry" />
        </mxCell>
        <mxCell id="QdLWRezI_ocXIoISg_wT-54" value="(0,n)" style="text;html=1;align=center;verticalAlign=middle;resizable=0;points=[];autosize=1;strokeColor=none;fillColor=none;fontSize=15;fontStyle=1;fontColor=light-dark(#000000,#FFFFFF);" parent="1" vertex="1">
          <mxGeometry x="748" y="2159" width="50" height="30" as="geometry" />
        </mxCell>
        <mxCell id="QdLWRezI_ocXIoISg_wT-55" value="&lt;i&gt;&lt;font style=&quot;font-size: 25px;&quot;&gt;RelativaA&lt;/font&gt;&lt;/i&gt;" style="shape=rhombus;perimeter=rhombusPerimeter;whiteSpace=wrap;html=1;align=center;fillColor=#ffcd28;gradientColor=#ffa500;strokeColor=#d79b00;aspect=fixed;fontColor=light-dark(#000000,#FFFFFF);fontStyle=1" parent="1" vertex="1">
          <mxGeometry x="651" y="1977.4" width="127" height="101.6" as="geometry" />
        </mxCell>
        <mxCell id="QdLWRezI_ocXIoISg_wT-56" value="" style="endArrow=none;html=1;rounded=0;fontColor=light-dark(#000000,#FFFFFF);fontStyle=1;exitX=1;exitY=1;exitDx=0;exitDy=0;entryX=0;entryY=0.5;entryDx=0;entryDy=0;" parent="1" source="QdLWRezI_ocXIoISg_wT-41" target="QdLWRezI_ocXIoISg_wT-55" edge="1">
          <mxGeometry width="50" height="50" relative="1" as="geometry">
            <mxPoint x="925" y="1959" as="sourcePoint" />
            <mxPoint x="945" y="2024" as="targetPoint" />
          </mxGeometry>
        </mxCell>
        <mxCell id="QdLWRezI_ocXIoISg_wT-57" value="" style="endArrow=none;html=1;rounded=0;fontColor=light-dark(#000000,#FFFFFF);fontStyle=1;exitX=1;exitY=0.5;exitDx=0;exitDy=0;entryX=0;entryY=0;entryDx=0;entryDy=0;" parent="1" source="QdLWRezI_ocXIoISg_wT-55" target="QdLWRezI_ocXIoISg_wT-48" edge="1">
          <mxGeometry width="50" height="50" relative="1" as="geometry">
            <mxPoint x="895" y="2020" as="sourcePoint" />
            <mxPoint x="968" y="2019" as="targetPoint" />
          </mxGeometry>
        </mxCell>
        <mxCell id="QdLWRezI_ocXIoISg_wT-58" value="(1,1)" style="text;html=1;align=center;verticalAlign=middle;resizable=0;points=[];autosize=1;strokeColor=none;fillColor=none;fontSize=15;fontStyle=1;fontColor=light-dark(#000000,#FFFFFF);" parent="1" vertex="1">
          <mxGeometry x="576.5" y="1989" width="50" height="30" as="geometry" />
        </mxCell>
        <mxCell id="QdLWRezI_ocXIoISg_wT-59" value="(0,n)" style="text;html=1;align=center;verticalAlign=middle;resizable=0;points=[];autosize=1;strokeColor=none;fillColor=none;fontSize=15;fontStyle=1;fontColor=light-dark(#000000,#FFFFFF);" parent="1" vertex="1">
          <mxGeometry x="798" y="2049" width="50" height="30" as="geometry" />
        </mxCell>
        <mxCell id="QdLWRezI_ocXIoISg_wT-60" value="&lt;i&gt;&lt;font style=&quot;font-size: 17px;&quot;&gt;DettagliCarrello&lt;/font&gt;&lt;/i&gt;&lt;div&gt;&lt;i&gt;&lt;br&gt;&lt;/i&gt;&lt;/div&gt;&lt;div&gt;&lt;font style=&quot;font-size: 14px;&quot;&gt;Quantita&lt;/font&gt;&lt;/div&gt;&lt;div&gt;&lt;font style=&quot;font-size: 14px;&quot;&gt;TotaleParziale&lt;/font&gt;&lt;/div&gt;" style="shape=rhombus;perimeter=rhombusPerimeter;whiteSpace=wrap;html=1;align=center;fillColor=#ffcd28;gradientColor=#ffa500;strokeColor=#d79b00;aspect=fixed;fontColor=light-dark(#000000,#FFFFFF);fontStyle=1" parent="1" vertex="1">
          <mxGeometry x="770" y="1819" width="186" height="186" as="geometry" />
        </mxCell>
        <mxCell id="QdLWRezI_ocXIoISg_wT-62" value="" style="endArrow=none;html=1;rounded=0;fontColor=light-dark(#000000,#FFFFFF);fontStyle=1;entryX=0.5;entryY=1;entryDx=0;entryDy=0;exitX=0.345;exitY=-0.008;exitDx=0;exitDy=0;exitPerimeter=0;" parent="1" source="QdLWRezI_ocXIoISg_wT-48" target="QdLWRezI_ocXIoISg_wT-60" edge="1">
          <mxGeometry width="50" height="50" relative="1" as="geometry">
            <mxPoint x="1006" y="2039" as="sourcePoint" />
            <mxPoint x="967" y="2040" as="targetPoint" />
          </mxGeometry>
        </mxCell>
        <mxCell id="QdLWRezI_ocXIoISg_wT-64" value="(0,n)" style="text;html=1;align=center;verticalAlign=middle;resizable=0;points=[];autosize=1;strokeColor=none;fillColor=none;fontSize=15;fontStyle=1;fontColor=light-dark(#000000,#FFFFFF);" parent="1" vertex="1">
          <mxGeometry x="862.5" y="2049" width="50" height="30" as="geometry" />
        </mxCell>
        <mxCell id="QdLWRezI_ocXIoISg_wT-65" value="" style="endArrow=none;html=1;rounded=0;fontColor=light-dark(#000000,#FFFFFF);fontStyle=1;entryX=1;entryY=0.75;entryDx=0;entryDy=0;exitX=0;exitY=0.5;exitDx=0;exitDy=0;" parent="1" source="QdLWRezI_ocXIoISg_wT-66" target="QdLWRezI_ocXIoISg_wT-2" edge="1">
          <mxGeometry width="50" height="50" relative="1" as="geometry">
            <mxPoint x="895" y="1579" as="sourcePoint" />
            <mxPoint x="640" y="1592" as="targetPoint" />
          </mxGeometry>
        </mxCell>
        <mxCell id="QdLWRezI_ocXIoISg_wT-66" value="&lt;i&gt;&lt;font style=&quot;font-size: 25px;&quot;&gt;Fornisce&lt;/font&gt;&lt;/i&gt;" style="shape=rhombus;perimeter=rhombusPerimeter;whiteSpace=wrap;html=1;align=center;fillColor=#ffcd28;gradientColor=#ffa500;strokeColor=#d79b00;aspect=fixed;fontColor=light-dark(#000000,#FFFFFF);fontStyle=1" parent="1" vertex="1">
          <mxGeometry x="905" y="1496" width="130" height="104" as="geometry" />
        </mxCell>
        <mxCell id="QdLWRezI_ocXIoISg_wT-67" value="" style="endArrow=none;html=1;rounded=0;fontColor=light-dark(#000000,#FFFFFF);fontStyle=1;entryX=0.5;entryY=1;entryDx=0;entryDy=0;exitX=1;exitY=0;exitDx=0;exitDy=0;" parent="1" source="QdLWRezI_ocXIoISg_wT-48" target="QdLWRezI_ocXIoISg_wT-66" edge="1">
          <mxGeometry width="50" height="50" relative="1" as="geometry">
            <mxPoint x="1357" y="1896.5" as="sourcePoint" />
            <mxPoint x="1050" y="1891.5" as="targetPoint" />
          </mxGeometry>
        </mxCell>
        <mxCell id="QdLWRezI_ocXIoISg_wT-68" value="(Artigiano)" style="text;html=1;align=center;verticalAlign=middle;resizable=0;points=[];autosize=1;strokeColor=none;fillColor=none;fontStyle=1;fontSize=17;" parent="1" vertex="1">
          <mxGeometry x="668" y="1520" width="100" height="30" as="geometry" />
        </mxCell>
        <mxCell id="QdLWRezI_ocXIoISg_wT-69" value="(1,1)" style="text;html=1;align=center;verticalAlign=middle;resizable=0;points=[];autosize=1;strokeColor=none;fillColor=none;fontSize=15;fontStyle=1;fontColor=light-dark(#000000,#FFFFFF);" parent="1" vertex="1">
          <mxGeometry x="623" y="1520" width="50" height="30" as="geometry" />
        </mxCell>
        <mxCell id="QdLWRezI_ocXIoISg_wT-70" value="(0,n)" style="text;html=1;align=center;verticalAlign=middle;resizable=0;points=[];autosize=1;strokeColor=none;fillColor=none;fontSize=15;fontStyle=1;fontColor=light-dark(#000000,#FFFFFF);" parent="1" vertex="1">
          <mxGeometry x="917" y="2049" width="50" height="30" as="geometry" />
        </mxCell>
        <mxCell id="QdLWRezI_ocXIoISg_wT-71" value="&lt;i&gt;&lt;font style=&quot;font-size: 25px;&quot;&gt;RelativoA&lt;/font&gt;&lt;/i&gt;" style="shape=rhombus;perimeter=rhombusPerimeter;whiteSpace=wrap;html=1;align=center;fillColor=#ffcd28;gradientColor=#ffa500;strokeColor=#d79b00;aspect=fixed;fontColor=light-dark(#000000,#FFFFFF);fontStyle=1" parent="1" vertex="1">
          <mxGeometry x="-13.5" y="2121.6" width="131" height="104.8" as="geometry" />
        </mxCell>
        <mxCell id="QdLWRezI_ocXIoISg_wT-72" value="" style="endArrow=none;html=1;rounded=0;fontColor=light-dark(#000000,#FFFFFF);fontStyle=1;entryX=0.5;entryY=0;entryDx=0;entryDy=0;exitX=0.5;exitY=1;exitDx=0;exitDy=0;" parent="1" source="QdLWRezI_ocXIoISg_wT-13" target="QdLWRezI_ocXIoISg_wT-71" edge="1">
          <mxGeometry width="50" height="50" relative="1" as="geometry">
            <mxPoint x="158" y="2329" as="sourcePoint" />
            <mxPoint x="158" y="2638" as="targetPoint" />
          </mxGeometry>
        </mxCell>
        <mxCell id="QdLWRezI_ocXIoISg_wT-73" value="" style="endArrow=none;html=1;rounded=0;fontColor=light-dark(#000000,#FFFFFF);fontStyle=1;entryX=0;entryY=0.5;entryDx=0;entryDy=0;exitX=1;exitY=0.5;exitDx=0;exitDy=0;" parent="1" source="QdLWRezI_ocXIoISg_wT-71" target="QdLWRezI_ocXIoISg_wT-26" edge="1">
          <mxGeometry width="50" height="50" relative="1" as="geometry">
            <mxPoint x="143.59" y="2179" as="sourcePoint" />
            <mxPoint x="207.99999999999994" y="2301" as="targetPoint" />
          </mxGeometry>
        </mxCell>
        <mxCell id="QdLWRezI_ocXIoISg_wT-74" value="(1,1)" style="text;html=1;align=center;verticalAlign=middle;resizable=0;points=[];autosize=1;strokeColor=none;fillColor=none;fontSize=15;fontStyle=1;fontColor=light-dark(#000000,#FFFFFF);" parent="1" vertex="1">
          <mxGeometry x="40" y="2037.9999999999998" width="50" height="30" as="geometry" />
        </mxCell>
        <mxCell id="QdLWRezI_ocXIoISg_wT-75" value="(0,n)" style="text;html=1;align=center;verticalAlign=middle;resizable=0;points=[];autosize=1;strokeColor=none;fillColor=none;fontSize=15;fontStyle=1;fontColor=light-dark(#000000,#FFFFFF);" parent="1" vertex="1">
          <mxGeometry x="191.75" y="2149.5" width="50" height="30" as="geometry" />
        </mxCell>
        <mxCell id="QdLWRezI_ocXIoISg_wT-76" value="(1,1)" style="text;html=1;align=center;verticalAlign=middle;resizable=0;points=[];autosize=1;strokeColor=none;fillColor=none;fontSize=15;fontStyle=1;fontColor=light-dark(#000000,#FFFFFF);" parent="1" vertex="1">
          <mxGeometry x="344.25" y="2280" width="50" height="30" as="geometry" />
        </mxCell>
        <mxCell id="QdLWRezI_ocXIoISg_wT-77" value="" style="endArrow=none;html=1;rounded=0;entryX=0.5;entryY=1;entryDx=0;entryDy=0;fontColor=light-dark(#000000,#FFFFFF);fontStyle=1;exitX=0.5;exitY=0;exitDx=0;exitDy=0;" parent="1" source="QdLWRezI_ocXIoISg_wT-78" target="QdLWRezI_ocXIoISg_wT-27" edge="1">
          <mxGeometry width="50" height="50" relative="1" as="geometry">
            <mxPoint x="314" y="2369" as="sourcePoint" />
            <mxPoint x="348" y="2649" as="targetPoint" />
            <Array as="points" />
          </mxGeometry>
        </mxCell>
        <mxCell id="QdLWRezI_ocXIoISg_wT-78" value="&lt;i&gt;&lt;font style=&quot;font-size: 25px;&quot;&gt;&lt;span&gt;ProcessatoCon&lt;/span&gt;&lt;/font&gt;&lt;/i&gt;" style="shape=rhombus;perimeter=rhombusPerimeter;whiteSpace=wrap;html=1;align=center;fillColor=#ffcd28;gradientColor=#ffa500;strokeColor=#d79b00;fontColor=light-dark(#000000,#FFFFFF);fontStyle=1" parent="1" vertex="1">
          <mxGeometry x="212.5" y="2386" width="208" height="115.2" as="geometry" />
        </mxCell>
        <mxCell id="QdLWRezI_ocXIoISg_wT-79" value="&lt;font style=&quot;font-size: 25px;&quot;&gt;Pagamento&lt;/font&gt;" style="swimlane;childLayout=stackLayout;horizontal=1;startSize=50;horizontalStack=0;rounded=1;fontSize=14;fontStyle=1;strokeWidth=2;resizeParent=0;resizeLast=1;shadow=0;dashed=0;align=center;arcSize=4;whiteSpace=wrap;html=1;fillColor=#d5e8d4;gradientColor=#97d077;strokeColor=#82b366;fontColor=light-dark(#000000,#FFFFFF);" parent="1" vertex="1">
          <mxGeometry x="222.75" y="2589" width="187.5" height="201" as="geometry" />
        </mxCell>
        <mxCell id="QdLWRezI_ocXIoISg_wT-80" value="&lt;div&gt;&lt;span&gt;&lt;font style=&quot;font-size: 18px;&quot;&gt;&lt;u style=&quot;&quot;&gt;IDPagamento&lt;/u&gt;&lt;/font&gt;&lt;/span&gt;&lt;/div&gt;&lt;div&gt;&lt;font style=&quot;font-size: 16px;&quot;&gt;StripePaymentIIntentID&lt;br&gt;StripeStatus&lt;/font&gt;&lt;/div&gt;&lt;div&gt;&lt;font style=&quot;font-size: 16px;&quot;&gt;Modalita&lt;/font&gt;&lt;/div&gt;&lt;div&gt;&lt;font style=&quot;font-size: 16px;&quot;&gt;ImportoTotale&lt;/font&gt;&lt;/div&gt;&lt;div&gt;&lt;font style=&quot;font-size: 16px;&quot;&gt;Valuta&lt;/font&gt;&lt;/div&gt;&lt;div&gt;&lt;font style=&quot;font-size: 16px;&quot;&gt;TimeStampCreazione&lt;/font&gt;&lt;/div&gt;" style="align=left;strokeColor=none;fillColor=none;spacingLeft=4;spacingRight=4;fontSize=12;verticalAlign=top;resizable=0;rotatable=0;part=1;html=1;whiteSpace=wrap;fontStyle=1;fontColor=light-dark(#000000,#FFFFFF);" parent="QdLWRezI_ocXIoISg_wT-79" vertex="1">
          <mxGeometry y="50" width="187.5" height="151" as="geometry" />
        </mxCell>
        <mxCell id="QdLWRezI_ocXIoISg_wT-81" value="" style="endArrow=none;html=1;rounded=0;entryX=0.5;entryY=1;entryDx=0;entryDy=0;fontColor=light-dark(#000000,#FFFFFF);fontStyle=1;exitX=0.5;exitY=0;exitDx=0;exitDy=0;" parent="1" source="QdLWRezI_ocXIoISg_wT-79" target="QdLWRezI_ocXIoISg_wT-78" edge="1">
          <mxGeometry width="50" height="50" relative="1" as="geometry">
            <mxPoint x="679.5" y="2726" as="sourcePoint" />
            <mxPoint x="676.5" y="2579" as="targetPoint" />
            <Array as="points" />
          </mxGeometry>
        </mxCell>
        <mxCell id="QdLWRezI_ocXIoISg_wT-82" value="(1,1)" style="text;html=1;align=center;verticalAlign=middle;resizable=0;points=[];autosize=1;strokeColor=none;fillColor=none;fontSize=15;fontStyle=1;fontColor=light-dark(#000000,#FFFFFF);" parent="1" vertex="1">
          <mxGeometry x="311.75" y="2549" width="50" height="30" as="geometry" />
        </mxCell>
        <mxCell id="InCvgjIFBe_jEXLaenRz-4" style="rounded=0;orthogonalLoop=1;jettySize=auto;html=1;exitX=0.75;exitY=1;exitDx=0;exitDy=0;edgeStyle=orthogonalEdgeStyle;strokeColor=default;endArrow=none;startFill=0;" edge="1" parent="1" source="QdLWRezI_ocXIoISg_wT-2" target="QdLWRezI_ocXIoISg_wT-60">
          <mxGeometry relative="1" as="geometry" />
        </mxCell>
        <mxCell id="InCvgjIFBe_jEXLaenRz-8" style="edgeStyle=orthogonalEdgeStyle;rounded=0;orthogonalLoop=1;jettySize=auto;html=1;exitX=0.5;exitY=0;exitDx=0;exitDy=0;entryX=0;entryY=0.75;entryDx=0;entryDy=0;endArrow=none;startFill=0;" edge="1" parent="1" source="InCvgjIFBe_jEXLaenRz-6" target="QdLWRezI_ocXIoISg_wT-2">
          <mxGeometry relative="1" as="geometry" />
        </mxCell>
        <mxCell id="InCvgjIFBe_jEXLaenRz-6" value="&lt;i&gt;&lt;font style=&quot;font-size: 17px;&quot;&gt;SubOrdine&lt;/font&gt;&lt;/i&gt;&lt;div&gt;&lt;i&gt;&lt;br&gt;&lt;/i&gt;&lt;/div&gt;&lt;div&gt;&lt;span style=&quot;font-size: 14px;&quot;&gt;SubOrdineStatus&lt;/span&gt;&lt;/div&gt;" style="shape=rhombus;perimeter=rhombusPerimeter;whiteSpace=wrap;html=1;align=center;fillColor=#ffcd28;gradientColor=#ffa500;strokeColor=#d79b00;aspect=fixed;fontColor=light-dark(#000000,#FFFFFF);fontStyle=1" vertex="1" parent="1">
          <mxGeometry x="116.75" y="1747" width="195" height="195" as="geometry" />
        </mxCell>
        <mxCell id="InCvgjIFBe_jEXLaenRz-9" value="(Artigiano)" style="text;html=1;align=center;verticalAlign=middle;resizable=0;points=[];autosize=1;strokeColor=none;fillColor=none;fontStyle=1;fontSize=17;" vertex="1" parent="1">
          <mxGeometry x="198" y="1533" width="100" height="30" as="geometry" />
        </mxCell>
        <mxCell id="InCvgjIFBe_jEXLaenRz-10" value="(1,n)" style="text;html=1;align=center;verticalAlign=middle;resizable=0;points=[];autosize=1;strokeColor=none;fillColor=none;fontSize=15;fontStyle=1;fontColor=light-dark(#000000,#FFFFFF);" vertex="1" parent="1">
          <mxGeometry x="283.5" y="1533" width="50" height="30" as="geometry" />
        </mxCell>
        <mxCell id="InCvgjIFBe_jEXLaenRz-11" value="(1,n)" style="text;html=1;align=center;verticalAlign=middle;resizable=0;points=[];autosize=1;strokeColor=none;fillColor=none;fontSize=15;fontStyle=1;fontColor=light-dark(#000000,#FFFFFF);" vertex="1" parent="1">
          <mxGeometry x="260" y="2070" width="50" height="30" as="geometry" />
        </mxCell>
      </root>
    </mxGraphModel>
  </diagram>
</mxfile>
